<?xml version="1.0" encoding="utf-8"?>
<!-- Generator: Adobe Illustrator 26.4.1, SVG Export Plug-In . SVG Version: 6.00 Build 0)  -->
<svg version="1.1" id="Слой_1" xmlns="http://www.w3.org/2000/svg" xmlns:xlink="http://www.w3.org/1999/xlink" x="0px" y="0px"
	 viewBox="0 0 400 400" style="enable-background:new 0 0 400 400;" xml:space="preserve">
<g id="Layer_1" transform="matrix(0.39 0 0 0.39 200 200)">
	<path d="M0-512.8c-283.2,0-512.8,229.6-512.8,512.8S-283.2,512.8,0,512.8S512.8,283.2,512.8,0S283.2-512.8,0-512.8z M266.5-188.4
		l-91.1,434.8c-3.6,17.3-20.6,28.4-38,24.8c-4.5-0.9-8.8-2.9-12.5-5.6L-7.5,167.7l-80.3,75.7c-4.4,4.1-11.3,3.9-15.4-0.4
		c0,0-0.1-0.1-0.1-0.1l-1.7-1.9L-91,106l251.4-229.7c2.7-2.5,2.9-6.8,0.4-9.5c-2.2-2.4-5.8-2.9-8.6-1.1L-169.2,69.1l-138.5-46.5
		c-9.9-3.3-15.2-14-11.8-23.8c1.8-5.4,5.9-9.6,11.2-11.6l541.7-204.1c12.9-4.8,27.3,1.7,32.1,14.5
		C267.1-197.9,267.5-193.1,266.5-188.4z"/>
</g>
</svg>
