<?xml version="1.0" encoding="utf-8"?>
<!-- Generator: Adobe Illustrator 26.4.1, SVG Export Plug-In . SVG Version: 6.00 Build 0)  -->
<svg version="1.1" id="Слой_1" xmlns="http://www.w3.org/2000/svg" xmlns:xlink="http://www.w3.org/1999/xlink" x="0px" y="0px"
	 viewBox="0 0 400 400" style="enable-background:new 0 0 400 400;" xml:space="preserve">
<g id="Layer_1" transform="matrix(0.39 0 0 0.39 200 200)">
	<path d="M0-512.8c-283.2,0-512.8,229.6-512.8,512.8S-283.2,512.8,0,512.8S512.8,283.2,512.8,0S283.2-512.8,0-512.8z M273.2,174.1
		h-65.1c-14.3,0-27.8-6.5-36.7-17.6c-19.5-24.5-58-67.9-98.3-86.6c-7.7-3.6-16.8-0.3-20.4,7.4c-0.9,2-1.4,4.2-1.4,6.5v64.4
		c0,14.4-11.6,26-26,26c0,0,0,0,0,0H-4.9c-39.1,0-123.4-23.8-190.5-121.6c-57.2-83.3-82.7-147.9-97.6-200.3
		c-3.1-11,3.3-22.4,14.3-25.5c1.8-0.5,3.7-0.8,5.6-0.8h65.8c13.5,0,25.4,8.8,29.2,21.8c12.2,40.9,43.9,129.3,100,173.2
		c5,4,12.3,3.1,16.3-1.9c1.6-2,2.5-4.6,2.5-7.2V-91.2c0-20.4-8.8-40.8-22.6-56.7c-5.7-6.6-5-16.5,1.6-22.3c2.9-2.5,6.5-3.9,10.4-3.9
		H31.5c10.9,0,19.7,8.8,19.7,19.7v138.9c0,6,4.9,11,11,11c2.3,0,4.5-0.7,6.3-2c18.6-13.3,34.6-32.9,49.3-54.9
		c18.5-27.7,41-73.5,52.3-97.3c4.5-9.4,13.9-15.4,24.3-15.4h71.8c9.7,0,17.6,7.9,17.6,17.6c0,2.7-0.6,5.4-1.8,7.8
		c-18.1,36.3-53.4,103-86.6,142.1c-9.9,11.7-8.4,29.2,3.3,39.1c21.6,18.5,55.4,52.7,91.9,109.6c6.2,9.6,3.4,22.4-6.2,28.5
		C281,172.9,277.1,174.1,273.2,174.1z"/>
</g>
</svg>
