<?xml version="1.0" encoding="utf-8"?>
<!-- Generator: Adobe Illustrator 26.4.1, SVG Export Plug-In . SVG Version: 6.00 Build 0)  -->
<svg version="1.1" id="Слой_1" xmlns="http://www.w3.org/2000/svg" xmlns:xlink="http://www.w3.org/1999/xlink" x="0px" y="0px"
	 viewBox="0 0 400 400" style="enable-background:new 0 0 400 400;" xml:space="preserve">
<g id="Layer_1" transform="matrix(3.53 0 0 3.53 204.94 200.41)">
	<path d="M-0.1-29.6c-15.6,0-28.3,12.7-28.3,28.3c0,5.3,1.5,10.5,4.3,15l0.7,1.1l-2.9,10.4l10.7-2.8l1,0.6c4.3,2.6,9.3,3.9,14.4,3.9
		h0c15.6,0,28.3-12.7,28.3-28.3c0-7.6-2.9-14.7-8.3-20C14.5-26.7,7.4-29.6-0.1-29.6z M16.5,10.8c-0.7,2-4.1,3.8-5.7,4
		c-1.5,0.2-3.3,0.3-5.4-0.3c-1.2-0.4-2.8-0.9-4.8-1.8C-8,9-13.5,0.5-14-0.1c-0.4-0.6-3.5-4.6-3.5-8.8c0-4.2,2.2-6.2,3-7.1
		c0.8-0.9,1.7-1.1,2.3-1.1c0.6,0,1.1,0,1.6,0c0.5,0,1.2-0.2,1.9,1.5c0.7,1.7,2.4,5.9,2.6,6.3C-5.8-8.8-5.7-8.3-6-7.8
		c-0.3,0.6-0.4,0.9-0.8,1.4c-0.4,0.5-0.9,1.1-1.3,1.5C-8.5-4.4-9-4-8.5-3.1C-8-2.3-6.3,0.5-3.7,2.8c3.2,2.9,6,3.8,6.8,4.2
		C4,7.4,4.4,7.3,4.9,6.8c0.5-0.6,2.1-2.5,2.7-3.3C8.2,2.6,8.8,2.7,9.5,3c0.8,0.3,5,2.3,5.8,2.8c0.8,0.4,1.4,0.6,1.6,1
		C17.2,7.1,17.2,8.8,16.5,10.8z"/>
</g>
<g id="Layer_1_00000144324304322993020570000000260924698509724038_" transform="matrix(3.53 0 0 3.53 203.03 202.3)">
	<path d="M-0.9-57.3c-31.3,0-56.7,25.4-56.7,56.7S-32.1,56-0.9,56c31.3,0,56.7-25.4,56.7-56.7S30.4-57.3-0.9-57.3z M0.4,32.1
		C0.4,32.1,0.4,32.1,0.4,32.1L0.4,32.1c-5.7,0-11.3-1.4-16.3-4.1l-18,4.7l4.8-17.6c-3-5.2-4.5-11-4.5-17c0-18.8,15.3-34,34-34
		c9.1,0,17.6,3.5,24.1,10c6.4,6.4,10,15,10,24.1C34.4,16.9,19.1,32.1,0.4,32.1z"/>
</g>
</svg>
